<svg xmlns="http://www.w3.org/2000/svg" viewBox="0 0 200 168"><path fill="#000" d="M77.19 1.333c-.903.16-3.517.6-5.815.979-7.968 1.308-8.368 1.383-11.62 2.244C51.038 6.868 46.85 8.26 42.262 10.37c-2.418 1.114-9.058 4.084-12.088 5.99-5.372 3.367-9.688 6.801-13.136 10.446-3.575 3.78-6.044 6.97-8.3 10.75-.85 1.425-2.749 4.918-3.32 6.1C1.759 51.307.72 58.893.074 67.575c-.107 1.433-.392 8.367 1.833 14.17 2.455 6.401 6.715 10.525 8.263 12.027 1.548 1.502 3.839 1.502 6.87 1.612.902.034.256.05 2.826 0 2.57-.05 9.602-.422 13.203-.05 3.184.328 5.925 1.045 8.01 2.092 1.141.573 2.128 1.442 3.048 2.708 1.447 1.974 2.137 3.324 3.669 7.222.962 2.43 2.009 4.396 3.15 5.89 1.012 1.333 2.136 2.286 3.702 3.113.4.21.86.472 1.022.574.434.278 2.384.886 3.882 1.215 1.192.261 3.626.59 4.758.64.562.026 2.52.085 4.342.128 1.83.042 3.899.135 4.597.21.706.068 1.907.16 2.681.211 3.44.211 5.814.633 8.087 1.452.809.286 1.83.776 1.916.91.034.051.289.203.578.347.843.422 1.703 1.113 3.201 2.556 3.567 3.476 6.197 7.13 9.117 12.665.35.65.707 1.274.8 1.392.103.118.426.768.724 1.434.298.675.596 1.283.656 1.35.178.211 2.094 4.514 2.945 6.623.502 1.258 1.737 4.101 2.196 5.063.222.464 1.558 3.122 1.89 3.78 1.507 2.995 3.6 6.404 5.712 9.298.851 1.164 1.098 1.434 1.634 1.696 1.017.43 3.346-.66 4.325-1.35.979-.69 1.209-1.07 1.668-1.922.162-.304.86-1.7.86-2.82 0-1.12-.391-2.801-1.856-6.446-.57-1.426-.723-2.084-.69-2.97.035-.633.06-.751.282-1.03.306-.405.587-.573 1.404-.835 1.362-.447 1.992-.506 5.074-.439 2.435.051 2.954.085 3.873.254 1.865.354 4.682.953 6.13 1.307 4.051.987 6.87 1.333 9.15 1.106 8.99-.886 14.549-3.451 18.439-8.488 1.03-1.333 2.57-3.704 4.001-6.117 1.234-2.101 2.903-4.312 4.29-5.704.775-.768 1.047-.987 1.584-1.249 1.37-.65 3.056-.894 6.257-.894.944 0 2.11-.042 2.596-.084 3.116-.304 5.295-1.224 7.116-3.004 1.184-1.165 1.763-1.958 2.818-3.873.954-1.746 1.413-2.91 1.975-5.062.145-.557.485-1.662.766-2.447 4.563-13.019 5.67-25.363 3.44-38.415-.452-2.675-1.15-5.754-1.83-8.117-.929-3.206-2.155-6.724-2.92-8.353a150.94 150.94 0 01-.997-2.194c-1.779-4.05-4.852-9.55-7.678-13.752-2.35-3.477-6.461-8.775-8.947-11.517-5.193-5.73-9.687-9.906-15.672-14.563-7.44-5.797-12.07-8.404-16.983-9.568-2.213-.515-3.992-.7-7.959-.802-3.03-.076-3.754-.143-6.725-.624-.979-.16-4.903-.937-10.624-3.417-5.235-2.27-6.47-2.75-8.419-3.248-1.447-.372-2.605-.498-3.456-.389-1.277.17-4.46 1.03-5.559 1.51-1.583.693-2.417.878-3.95.878-1.064.009-1.387-.025-1.95-.185-.774-.211-3.047-1.038-4.775-1.747C88.886.709 87.745.329 86.928.169c-1.226-.237-1.761-.237-3.082.076-1.958.405-5.755.928-6.657 1.088z"/></svg>
